<svg xmlns="http://www.w3.org/2000/svg" aria-hidden="true" style="position:absolute;width:0;height:0;overflow:hidden">
<defs>
<symbol id="icon-twitter" viewBox="0 0 34 32">
<path d="M31.258 1.687a3.75 3.75 0 0 0-1.204.291l.025-.009h-.003c-.361.143-2.072.863-4.675 1.954l-9.329 3.929c-6.694 2.82-13.273 5.594-13.273 5.594l.079-.03s-.455.148-.927.472a2.536 2.536 0 0 0-.741.718 2.08 2.08 0 0 0-.349 1.413L.86 16.01c.113.912.704 1.459 1.129 1.761.43.307.839.448.839.448h.01l6.172 2.079c.276.888 1.88 6.16 2.264 7.375.227.724.45 1.179.726 1.525.135.177.29.325.479.445.098.057.202.101.312.135l-.064-.017c.019.005.034.02.049.025.051.013.084.019.148.029.977.297 1.762-.31 1.762-.31l.044-.035 3.643-3.317 6.106 4.684.14.061c1.272.558 2.561.248 3.242-.302.687-.553.954-1.259.954-1.259l.044-.113 4.718-24.173c.135-.596.169-1.156.022-1.697a2.29 2.29 0 0 0-.987-1.324 2.338 2.338 0 0 0-1.353-.34h.006zm-.127 2.589c-.005.081.01.071-.025.224v.013l-4.674 23.922c-.022.034-.056.108-.148.184-.099.078-.177.126-.588-.035l-7.467-5.727-4.512 4.111.947-6.052L26.866 9.543c.504-.467.337-.566.337-.566.034-.573-.76-.168-.76-.168l-15.39 9.535-.005-.025-7.392-2.494a.284.284 0 0 0 .039-.018l-.002.001.04-.019.039-.013 13.278-5.594c3.351-1.412 6.728-2.832 9.324-3.929a923.1 923.1 0 0 1 4.625-1.934c.104-.04.056-.04.13-.04z"/>
</symbol>
<symbol id="icon-fb" viewBox="0 0 32 32">
<path d="M13.917 11.104v2.204h-1.613v2.694h1.613v8.008h3.316v-8.008h2.225s.21-1.292.311-2.705h-2.523v-1.841c0-.277.362-.647.72-.647h1.805V8.003h-2.457c-3.48 0-3.398 2.697-3.398 3.1z"/>
<path d="M6.402 3.201a3.2 3.2 0 0 0-3.201 3.201v19.207a3.2 3.2 0 0 0 3.201 3.201h19.207a3.2 3.2 0 0 0 3.201-3.201V6.402a3.2 3.2 0 0 0-3.201-3.201H6.402zm0-3.201h19.207a6.403 6.403 0 0 1 6.403 6.402v19.207a6.403 6.403 0 0 1-6.402 6.403H6.403A6.402 6.402 0 0 1 .001 25.61V6.403A6.402 6.402 0 0 1 6.403.001z"/>
</symbol>
<symbol id="icon-insta" viewBox="0 0 32 32">
<path d="M9.41.096C11.117.017 11.662 0 16.011 0s4.894.019 6.6.096c1.706.077 2.87.349 3.889.744a7.857 7.857 0 0 1 2.835 1.849 7.829 7.829 0 0 1 1.846 2.834c.396 1.019.667 2.183.745 3.886.079 1.71.096 2.255.096 6.603 0 4.349-.019 4.894-.096 6.601-.077 1.703-.349 2.867-.745 3.886a7.888 7.888 0 0 1-1.845 2.836l-.001.001a7.867 7.867 0 0 1-2.835 1.846c-1.019.396-2.183.667-3.886.745-1.709.079-2.253.096-6.602.096s-4.894-.019-6.601-.096c-1.703-.077-2.867-.349-3.886-.745a7.888 7.888 0 0 1-2.836-1.845l-.001-.001a7.868 7.868 0 0 1-1.829-2.782L.841 26.5c-.394-1.019-.665-2.183-.744-3.886-.079-1.71-.096-2.255-.096-6.602 0-4.349.019-4.894.096-6.6s.349-2.87.744-3.889a7.88 7.88 0 0 1 1.847-2.834l.001-.001A7.869 7.869 0 0 1 5.469.859l.054-.018C6.542.447 7.706.176 9.409.097h.001zm13.071 2.882c-1.688-.077-2.195-.093-6.47-.093s-4.782.016-6.47.093c-1.562.071-2.409.332-2.974.552a4.968 4.968 0 0 0-1.841 1.196 4.962 4.962 0 0 0-1.185 1.807l-.011.034c-.22.565-.48 1.412-.552 2.974-.077 1.688-.093 2.195-.093 6.47s.016 4.782.093 6.47c.071 1.562.332 2.409.552 2.974a4.966 4.966 0 0 0 1.196 1.841c.517.531 1.147.94 1.841 1.197.565.22 1.412.48 2.974.552 1.688.077 2.194.093 6.47.093s4.782-.016 6.47-.093c1.562-.071 2.409-.332 2.974-.552a4.958 4.958 0 0 0 1.841-1.197 4.989 4.989 0 0 0 1.197-1.841c.22-.565.48-1.412.552-2.974.077-1.688.093-2.195.093-6.47s-.016-4.782-.093-6.47c-.071-1.562-.332-2.409-.552-2.974a4.958 4.958 0 0 0-1.197-1.841 4.962 4.962 0 0 0-1.807-1.185l-.034-.011c-.565-.22-1.412-.48-2.974-.552zm-8.515 17.969a5.342 5.342 0 1 0 3.881-9.953l-.037-.012a5.342 5.342 0 0 0-3.88 9.952l.035.013zm-3.774-10.755a8.23 8.23 0 0 1 11.639 11.639 8.23 8.23 0 0 1-11.639-11.639zm15.875-1.185a1.945 1.945 0 1 0-2.671-2.829l.001-.001a1.945 1.945 0 1 0 2.671 2.829l-.001.001z"/>
</symbol>
</defs>
</svg>