<!-- Generated by IcoMoon.io -->
<svg version="1.1" xmlns="http://www.w3.org/2000/svg" width="1024" height="1024" viewBox="0 0 1024 1024">
<title></title>
<g id="icomoon-ignore">
</g>
<path d="M456.32 381.312v58.752h-43.008v71.808h43.008v213.461h88.405v-213.461h59.307c0 0 5.589-34.432 8.277-72.107h-67.243v-49.067c0-7.381 9.643-17.237 19.2-17.237h48.128v-74.795h-65.493c-92.757 0-90.581 71.893-90.581 82.645z"></path>
<path d="M256 170.667c-22.632 0-44.337 8.99-60.34 24.994s-24.994 37.708-24.994 60.34v512c0 22.63 8.99 44.335 24.994 60.339s37.708 24.994 60.34 24.994h512c22.63 0 44.335-8.99 60.339-24.994s24.994-37.709 24.994-60.339v-512c0-22.632-8.99-44.337-24.994-60.34s-37.709-24.994-60.339-24.994h-512zM256 85.333h512c45.265 0 88.674 17.981 120.678 49.987 32.009 32.006 49.988 75.416 49.988 120.68v512c0 45.265-17.98 88.674-49.988 120.678-32.004 32.009-75.413 49.988-120.678 49.988h-512c-45.264 0-88.673-17.98-120.68-49.988-32.006-32.004-49.987-75.413-49.987-120.678v-512c0-45.264 17.981-88.673 49.987-120.68s75.416-49.987 120.68-49.987v0z"></path>
</svg>
