<!-- Generated by IcoMoon.io -->
<svg version="1.1" xmlns="http://www.w3.org/2000/svg" width="1024" height="1024" viewBox="0 0 1024 1024">
<title></title>
<g id="icomoon-ignore">
</g>
<path d="M318.507 45.483c50.048-2.304 66.005-2.816 193.493-2.816s143.445 0.555 193.451 2.816c50.005 2.261 84.139 10.24 114.005 21.803 31.275 11.819 59.648 30.293 83.115 54.187 23.893 23.424 42.325 51.755 54.101 83.072 11.605 29.867 19.541 64 21.845 113.92 2.304 50.133 2.816 66.091 2.816 193.536 0 127.488-0.555 143.445-2.816 193.493-2.261 49.92-10.24 84.053-21.845 113.92-11.776 31.322-30.238 59.699-54.101 83.157-23.467 23.893-51.84 42.325-83.115 54.101-29.867 11.605-64 19.541-113.92 21.845-50.091 2.304-66.048 2.816-193.536 2.816s-143.445-0.555-193.493-2.816c-49.92-2.261-84.053-10.24-113.92-21.845-31.321-11.776-59.698-30.238-83.157-54.101-23.877-23.437-42.355-51.802-54.144-83.115-11.563-29.867-19.499-64-21.803-113.92-2.304-50.133-2.816-66.091-2.816-193.536 0-127.488 0.555-143.445 2.816-193.451s10.24-84.139 21.803-114.005c11.807-31.314 30.298-59.677 54.187-83.115 23.426-23.872 51.775-42.349 83.072-54.144 29.867-11.563 64-19.499 113.92-21.803h0.043zM701.653 129.963c-49.493-2.261-64.341-2.731-189.653-2.731s-140.16 0.469-189.653 2.731c-45.781 2.091-70.613 9.728-87.168 16.171-21.888 8.533-37.547 18.645-53.973 35.072-15.571 15.149-27.555 33.591-35.072 53.973-6.443 16.555-14.080 41.387-16.171 87.168-2.261 49.493-2.731 64.341-2.731 189.653s0.469 140.16 2.731 189.653c2.091 45.781 9.728 70.613 16.171 87.168 7.509 20.352 19.499 38.827 35.072 53.973 15.147 15.573 33.621 27.563 53.973 35.072 16.555 6.443 41.387 14.080 87.168 16.171 49.493 2.261 64.299 2.731 189.653 2.731s140.16-0.469 189.653-2.731c45.781-2.091 70.613-9.728 87.168-16.171 21.888-8.533 37.547-18.645 53.973-35.072 15.573-15.147 27.563-33.621 35.072-53.973 6.443-16.555 14.080-41.387 16.171-87.168 2.261-49.493 2.731-64.341 2.731-189.653s-0.469-140.16-2.731-189.653c-2.091-45.781-9.728-70.613-16.171-87.168-8.533-21.888-18.645-37.547-35.072-53.973-15.151-15.57-33.591-27.554-53.973-35.072-16.555-6.443-41.387-14.080-87.168-16.171v0zM452.053 656.683c33.481 13.935 70.758 15.817 105.468 5.321 34.714-10.496 64.704-32.717 84.851-62.869 20.147-30.148 29.205-66.359 25.617-102.447-3.584-36.087-19.584-69.807-45.269-95.407-16.375-16.364-36.173-28.893-57.971-36.687-21.794-7.794-45.052-10.658-68.087-8.385s-45.282 9.624-65.139 21.526c-19.855 11.902-36.824 28.058-49.685 47.305-12.861 19.249-21.295 41.107-24.695 64.006-3.4 22.895-1.68 46.263 5.036 68.416s18.259 42.543 33.8 59.699c15.541 17.156 34.691 30.656 56.076 39.522zM341.419 341.419c22.401-22.401 48.995-40.171 78.263-52.294s60.638-18.363 92.318-18.363c31.68 0 63.049 6.24 92.318 18.363s55.863 29.893 78.263 52.294c22.4 22.401 40.171 48.995 52.292 78.263 12.126 29.269 18.364 60.638 18.364 92.318s-6.238 63.049-18.364 92.318c-12.122 29.269-29.892 55.863-52.292 78.263-45.239 45.239-106.603 70.656-170.581 70.656s-125.34-25.417-170.581-70.656c-45.241-45.239-70.657-106.603-70.657-170.581s25.416-125.34 70.657-170.581v0zM806.741 306.688c5.551-5.236 9.997-11.534 13.069-18.519s4.715-14.515 4.826-22.146c0.111-7.631-1.31-15.206-4.177-22.277-2.871-7.072-7.13-13.495-12.523-18.892-5.397-5.396-11.823-9.655-18.893-12.524s-14.647-4.29-22.276-4.179c-7.633 0.111-15.164 1.752-22.148 4.826s-13.282 7.518-18.517 13.069c-10.185 10.796-15.761 25.136-15.543 39.976s6.208 29.011 16.704 39.505c10.492 10.495 24.666 16.486 39.505 16.702s29.18-5.359 39.974-15.543v0z"></path>
</svg>
