<!-- Generated by IcoMoon.io -->
<svg version="1.1" xmlns="http://www.w3.org/2000/svg" width="1024" height="1024" viewBox="0 0 1024 1024">
<title></title>
<g id="icomoon-ignore">
</g>
<path d="M834.24 127.868c-10.274 0.748-20.356 3.157-29.858 7.136h-0.128c-9.118 3.616-52.48 21.856-118.4 49.504l-236.224 99.488c-169.502 71.36-336.126 141.632-336.126 141.632l1.984-0.768c0 0-11.488 3.778-23.488 12-7.414 4.719-13.793 10.889-18.752 18.146-5.888 8.64-10.624 21.854-8.864 35.52 2.88 23.104 17.856 36.958 28.608 44.608 10.88 7.744 21.248 11.358 21.248 11.358h0.256l156.256 52.642c7.008 22.494 47.616 155.998 57.376 186.752 5.76 18.368 11.36 29.854 18.368 38.622 3.392 4.48 7.36 8.226 12.128 11.234 2.479 1.442 5.122 2.577 7.872 3.392l-1.6-0.384c0.48 0.128 0.864 0.512 1.216 0.64 1.28 0.35 2.144 0.478 3.776 0.734 24.736 7.488 44.608-7.872 44.608-7.872l1.12-0.896 92.254-83.998 154.624 118.622 3.52 1.506c32.226 14.144 64.866 6.272 82.112-7.616 17.378-13.986 24.128-31.872 24.128-31.872l1.122-2.88 119.488-612.13c3.392-15.104 4.254-29.248 0.512-42.976-3.861-13.894-12.774-25.843-24.994-33.504-10.257-6.236-22.153-9.246-34.142-8.64zM831.006 193.468c-0.128 2.016 0.256 1.792-0.64 5.664v0.352l-118.366 605.76c-0.512 0.866-1.378 2.752-3.746 4.642-2.496 1.984-4.48 3.23-14.878-0.896l-189.12-144.994-114.24 104.128 24-153.28 308.992-288c12.736-11.84 8.478-14.336 8.478-14.336 0.896-14.528-19.23-4.256-19.23-4.256l-389.632 241.376-0.128-0.64-187.232-63.104c0.327-0.107 0.648-0.235 0.96-0.384l1.024-0.512 0.992-0.35c0 0 166.752-70.274 336.256-141.634 84.864-35.744 170.368-71.744 236.126-99.52 39.002-16.416 78.042-32.736 117.12-48.96 2.624-1.024 1.378-1.024 3.264-1.024v-0.032z"></path>
</svg>
