<!-- Generated by IcoMoon.io -->
<svg version="1.1" xmlns="http://www.w3.org/2000/svg" width="614" height="1024" viewBox="0 0 614 1024">
<title></title>
<g id="icomoon-ignore">
</g>
<path d="M307.2 21.025c-169.697 0-307.2 136.95-307.2 306.585 0 293.313 307.2 675.838 307.2 675.838s307.2-382.587 307.2-675.838c0-169.574-137.503-306.585-307.2-306.585zM307.2 497.246c-43.996 0-86.191-17.477-117.301-48.587s-48.587-73.304-48.587-117.301c0-43.996 17.478-86.19 48.587-117.3s73.305-48.588 117.301-48.588c43.996 0 86.191 17.478 117.301 48.588s48.587 73.304 48.587 117.3c0 43.997-17.478 86.191-48.587 117.301s-73.305 48.587-117.301 48.587z"></path>
</svg>
