<!-- Generated by IcoMoon.io -->
<svg version="1.1" xmlns="http://www.w3.org/2000/svg" width="10" height="12" viewBox="0 0 640 1024">
<title></title>
<g id="icomoon-ignore">
</g>
<path fill="#f3c653" d="M320 0.562c-176.768 0-320 142.656-320 319.36 0 305.536 320 704.001 320 704.001s320-398.529 320-704.001c0-176.64-143.232-319.36-320-319.36zM320 496.627c-45.829 0-89.782-18.205-122.188-50.612s-50.612-76.359-50.612-122.188c0-45.83 18.205-89.782 50.612-122.188s76.359-50.612 122.188-50.612c45.829 0 89.782 18.205 122.188 50.612s50.612 76.358 50.612 122.188c0 45.829-18.205 89.782-50.612 122.188s-76.359 50.612-122.188 50.612z"></path>
</svg>

