
<svg xmlns="http://www.w3.org/2000/svg" aria-hidden="true" style="position:absolute;width:0;height:0;overflow:hidden">
 <defs>
  <symbol id="icon-right" viewBox="0 0 53 32">
   <path d="m38.208 1.042-2.514 2.514 10.667 10.667H0v3.556h46.361L35.694 28.446l2.514 2.514 14.958-14.958L38.208 1.044z"/>
  </symbol>
  <symbol id="icon-left" viewBox="0 0 55 32">
   <path d="M53.481 14.222H7.122L17.789 3.555l-2.517-2.514L.316 15.999l14.958 14.958 2.514-2.514L7.121 17.776h46.361V14.22z"/>
  </symbol>
 </defs>
</svg>

<svg xmlns="http://www.w3.org/2000/svg" aria-hidden="true" style="position:absolute;width:0;height:0;overflow:hidden"><defs><symbol id="icon-right" viewBox="0 0 53 32"><path d="m38.208 1.042-2.514 2.514 10.667 10.667H0v3.556h46.361L35.694 28.446l2.514 2.514 14.958-14.958L38.208 1.044z"/></symbol><symbol id="icon-left" viewBox="0 0 55 32"><path d="M53.481 14.222H7.122L17.789 3.555l-2.517-2.514L.316 15.999l14.958 14.958 2.514-2.514L7.121 17.776h46.361V14.22z"/></symbol></defs></svg>

