<!-- Generated by IcoMoon.io -->
<svg version="1.1" xmlns="http://www.w3.org/2000/svg" width="20" height="20" viewBox="0 0 1024 1024">
<title></title>
<g id="icomoon-ignore">
</g>
<path fill="#f3c653" d="M512 102.85c-141.414 0-256 114.125-256 255.488 0 244.429 256 563.201 256 563.201s256-318.822 256-563.201c0-141.312-114.586-255.488-256-255.488v0zM512 499.701c-36.663 0-71.825-14.564-97.751-40.489s-40.489-61.087-40.489-97.751c0-36.664 14.564-71.825 40.489-97.751s61.087-40.489 97.751-40.489c36.664 0 71.823 14.564 97.751 40.489 25.923 25.925 40.489 61.087 40.489 97.751s-14.566 71.825-40.489 97.751c-25.928 25.925-61.087 40.489-97.751 40.489z"></path>
</svg>
